<svg width="40" height="40" viewBox="0 0 40 40" fill="none" xmlns="http://www.w3.org/2000/svg">
<path d="M19.9831 2.58752C21.0046 2.58752 22.0041 2.73676 22.7575 3.01819L31.0749 6.13538H31.0759C33.2954 6.96215 35.0505 9.50773 35.0505 11.8668V24.2496C35.0505 25.3368 34.7063 26.5896 34.1237 27.7487C33.5777 28.8349 32.8403 29.8025 32.0309 30.4557L31.8679 30.5826L24.7009 35.9323L24.695 35.9371C23.4123 36.9262 21.7237 37.4332 19.9997 37.4332C18.277 37.4332 16.5846 36.9264 15.2643 35.9479H15.2634L8.0993 30.5992C7.2266 29.9485 6.42526 28.921 5.84247 27.7594C5.25962 26.5977 4.91669 25.3448 4.91669 24.2662V11.8668C4.91669 9.50761 6.67163 6.96201 8.8913 6.13538H8.89227L17.2087 3.01819C17.9621 2.73667 18.9615 2.58755 19.9831 2.58752ZM20.0007 4.08557C19.2021 4.08775 18.3752 4.19499 17.7419 4.43127L17.7409 4.43225L9.4245 7.54846H9.42352C8.59602 7.86005 7.85479 8.52257 7.32391 9.29065C6.79283 10.059 6.43329 10.99 6.43329 11.8834V24.2662C6.43329 25.1607 6.74387 26.1894 7.20087 27.1012C7.65775 28.0128 8.29311 28.8727 9.00067 29.401L16.1677 34.7506C17.2295 35.5445 18.6281 35.9253 20.0016 35.9254C21.3755 35.9254 22.7779 35.5444 23.8474 34.7516L23.8493 34.7506L31.0153 29.401L31.0163 29.4C31.731 28.864 32.3666 28.005 32.822 27.0944C33.2773 26.1837 33.5837 25.1597 33.5837 24.2662V11.8668C33.5837 10.9808 33.2233 10.054 32.6931 9.28674C32.1625 8.51919 31.422 7.85398 30.5974 7.53381L30.5925 7.53186L22.2751 4.41467L22.2663 4.41174C21.6282 4.18655 20.8001 4.08339 20.0007 4.08557Z" fill="#FAFAFA" stroke="#FAFAFA"/>
<path d="M24.4039 14.77C24.692 14.4822 25.1755 14.482 25.4635 14.77C25.7514 15.0579 25.7513 15.5414 25.4635 15.8295L18.2965 22.9965C18.1452 23.1478 17.9574 23.2162 17.7662 23.2162C17.5752 23.2161 17.3881 23.1476 17.2369 22.9965L14.5533 20.3129C14.2655 20.0248 14.2654 19.5414 14.5533 19.2534C14.8414 18.9654 15.3248 18.9655 15.6129 19.2534L17.7662 21.4067L18.1207 21.0532L24.4039 14.77Z" fill="#FAFAFA" stroke="#FAFAFA"/>
</svg>
